<?xml version='1.0' encoding='UTF-8'?>
<svg width="66mm" height="66mm" version="1.1" viewBox="0 0 66 66" xmlns="http://www.w3.org/2000/svg"><path d="M4,4H6V6H4zM6,4H8V6H6zM8,4H10V6H8zM10,4H12V6H10zM12,4H14V6H12zM14,4H16V6H14zM16,4H18V6H16zM24,4H26V6H24zM32,4H34V6H32zM36,4H38V6H36zM38,4H40V6H38zM40,4H42V6H40zM42,4H44V6H42zM48,4H50V6H48zM50,4H52V6H50zM52,4H54V6H52zM54,4H56V6H54zM56,4H58V6H56zM58,4H60V6H58zM60,4H62V6H60zM4,6H6V8H4zM16,6H18V8H16zM24,6H26V8H24zM28,6H30V8H28zM32,6H34V8H32zM34,6H36V8H34zM38,6H40V8H38zM44,6H46V8H44zM48,6H50V8H48zM60,6H62V8H60zM4,8H6V10H4zM8,8H10V10H8zM10,8H12V10H10zM12,8H14V10H12zM16,8H18V10H16zM20,8H22V10H20zM22,8H24V10H22zM26,8H28V10H26zM28,8H30V10H28zM36,8H38V10H36zM42,8H44V10H42zM44,8H46V10H44zM48,8H50V10H48zM52,8H54V10H52zM54,8H56V10H54zM56,8H58V10H56zM60,8H62V10H60zM4,10H6V12H4zM8,10H10V12H8zM10,10H12V12H10zM12,10H14V12H12zM16,10H18V12H16zM20,10H22V12H20zM22,10H24V12H22zM30,10H32V12H30zM32,10H34V12H32zM38,10H40V12H38zM42,10H44V12H42zM48,10H50V12H48zM52,10H54V12H52zM54,10H56V12H54zM56,10H58V12H56zM60,10H62V12H60zM4,12H6V14H4zM8,12H10V14H8zM10,12H12V14H10zM12,12H14V14H12zM16,12H18V14H16zM20,12H22V14H20zM22,12H24V14H22zM26,12H28V14H26zM36,12H38V14H36zM38,12H40V14H38zM40,12H42V14H40zM42,12H44V14H42zM44,12H46V14H44zM48,12H50V14H48zM52,12H54V14H52zM54,12H56V14H54zM56,12H58V14H56zM60,12H62V14H60zM4,14H6V16H4zM16,14H18V16H16zM20,14H22V16H20zM26,14H28V16H26zM34,14H36V16H34zM36,14H38V16H36zM40,14H42V16H40zM44,14H46V16H44zM48,14H50V16H48zM60,14H62V16H60zM4,16H6V18H4zM6,16H8V18H6zM8,16H10V18H8zM10,16H12V18H10zM12,16H14V18H12zM14,16H16V18H14zM16,16H18V18H16zM20,16H22V18H20zM24,16H26V18H24zM28,16H30V18H28zM32,16H34V18H32zM36,16H38V18H36zM40,16H42V18H40zM44,16H46V18H44zM48,16H50V18H48zM50,16H52V18H50zM52,16H54V18H52zM54,16H56V18H54zM56,16H58V18H56zM58,16H60V18H58zM60,16H62V18H60zM20,18H22V20H20zM22,18H24V20H22zM26,18H28V20H26zM32,18H34V20H32zM36,18H38V20H36zM4,20H6V22H4zM8,20H10V22H8zM10,20H12V22H10zM12,20H14V22H12zM14,20H16V22H14zM16,20H18V22H16zM24,20H26V22H24zM26,20H28V22H26zM30,20H32V22H30zM32,20H34V22H32zM38,20H40V22H38zM42,20H44V22H42zM48,20H50V22H48zM50,20H52V22H50zM52,20H54V22H52zM54,20H56V22H54zM56,20H58V22H56zM4,22H6V24H4zM6,22H8V24H6zM8,22H10V24H8zM10,22H12V24H10zM18,22H20V24H18zM20,22H22V24H20zM26,22H28V24H26zM30,22H32V24H30zM36,22H38V24H36zM42,22H44V24H42zM44,22H46V24H44zM46,22H48V24H46zM48,22H50V24H48zM52,22H54V24H52zM60,22H62V24H60zM4,24H6V26H4zM6,24H8V26H6zM10,24H12V26H10zM12,24H14V26H12zM14,24H16V26H14zM16,24H18V26H16zM18,24H20V26H18zM22,24H24V26H22zM26,24H28V26H26zM30,24H32V26H30zM34,24H36V26H34zM36,24H38V26H36zM48,24H50V26H48zM50,24H52V26H50zM52,24H54V26H52zM6,26H8V28H6zM10,26H12V28H10zM14,26H16V28H14zM20,26H22V28H20zM22,26H24V28H22zM24,26H26V28H24zM26,26H28V28H26zM32,26H34V28H32zM40,26H42V28H40zM42,26H44V28H42zM44,26H46V28H44zM46,26H48V28H46zM48,26H50V28H48zM54,26H56V28H54zM58,26H60V28H58zM6,28H8V30H6zM8,28H10V30H8zM10,28H12V30H10zM12,28H14V30H12zM14,28H16V30H14zM16,28H18V30H16zM22,28H24V30H22zM26,28H28V30H26zM30,28H32V30H30zM32,28H34V30H32zM38,28H40V30H38zM40,28H42V30H40zM42,28H44V30H42zM50,28H52V30H50zM54,28H56V30H54zM56,28H58V30H56zM4,30H6V32H4zM6,30H8V32H6zM10,30H12V32H10zM18,30H20V32H18zM20,30H22V32H20zM26,30H28V32H26zM28,30H30V32H28zM32,30H34V32H32zM36,30H38V32H36zM38,30H40V32H38zM40,30H42V32H40zM42,30H44V32H42zM46,30H48V32H46zM48,30H50V32H48zM50,30H52V32H50zM52,30H54V32H52zM60,30H62V32H60zM8,32H10V34H8zM10,32H12V34H10zM12,32H14V34H12zM16,32H18V34H16zM18,32H20V34H18zM22,32H24V34H22zM24,32H26V34H24zM26,32H28V34H26zM32,32H34V34H32zM34,32H36V34H34zM54,32H56V34H54zM56,32H58V34H56zM4,34H6V36H4zM10,34H12V36H10zM12,34H14V36H12zM14,34H16V36H14zM22,34H24V36H22zM24,34H26V36H24zM34,34H36V36H34zM36,34H38V36H36zM42,34H44V36H42zM48,34H50V36H48zM50,34H52V36H50zM52,34H54V36H52zM58,34H60V36H58zM4,36H6V38H4zM14,36H16V38H14zM16,36H18V38H16zM18,36H20V38H18zM20,36H22V38H20zM26,36H28V38H26zM30,36H32V38H30zM32,36H34V38H32zM38,36H40V38H38zM54,36H56V38H54zM56,36H58V38H56zM4,38H6V40H4zM6,38H8V40H6zM14,38H16V40H14zM18,38H20V40H18zM26,38H28V40H26zM36,38H38V40H36zM38,38H40V40H38zM40,38H42V40H40zM42,38H44V40H42zM44,38H46V40H44zM46,38H48V40H46zM48,38H50V40H48zM50,38H52V40H50zM52,38H54V40H52zM56,38H58V40H56zM60,38H62V40H60zM4,40H6V42H4zM8,40H10V42H8zM12,40H14V42H12zM16,40H18V42H16zM20,40H22V42H20zM22,40H24V42H22zM24,40H26V42H24zM26,40H28V42H26zM32,40H34V42H32zM34,40H36V42H34zM38,40H40V42H38zM44,40H46V42H44zM46,40H48V42H46zM48,40H50V42H48zM50,40H52V42H50zM52,40H54V42H52zM56,40H58V42H56zM4,42H6V44H4zM10,42H12V44H10zM12,42H14V44H12zM32,42H34V44H32zM34,42H36V44H34zM36,42H38V44H36zM40,42H42V44H40zM44,42H46V44H44zM58,42H60V44H58zM4,44H6V46H4zM8,44H10V46H8zM10,44H12V46H10zM16,44H18V46H16zM18,44H20V46H18zM22,44H24V46H22zM24,44H26V46H24zM26,44H28V46H26zM30,44H32V46H30zM38,44H40V46H38zM44,44H46V46H44zM46,44H48V46H46zM48,44H50V46H48zM50,44H52V46H50zM52,44H54V46H52zM56,44H58V46H56zM58,44H60V46H58zM60,44H62V46H60zM20,46H22V48H20zM24,46H26V48H24zM30,46H32V48H30zM36,46H38V48H36zM38,46H40V48H38zM40,46H42V48H40zM42,46H44V48H42zM44,46H46V48H44zM52,46H54V48H52zM54,46H56V48H54zM56,46H58V48H56zM58,46H60V48H58zM60,46H62V48H60zM4,48H6V50H4zM6,48H8V50H6zM8,48H10V50H8zM10,48H12V50H10zM12,48H14V50H12zM14,48H16V50H14zM16,48H18V50H16zM24,48H26V50H24zM28,48H30V50H28zM30,48H32V50H30zM32,48H34V50H32zM34,48H36V50H34zM36,48H38V50H36zM38,48H40V50H38zM42,48H44V50H42zM44,48H46V50H44zM48,48H50V50H48zM52,48H54V50H52zM54,48H56V50H54zM56,48H58V50H56zM4,50H6V52H4zM16,50H18V52H16zM20,50H22V52H20zM24,50H26V52H24zM26,50H28V52H26zM32,50H34V52H32zM34,50H36V52H34zM42,50H44V52H42zM44,50H46V52H44zM52,50H54V52H52zM58,50H60V52H58zM60,50H62V52H60zM4,52H6V54H4zM8,52H10V54H8zM10,52H12V54H10zM12,52H14V54H12zM16,52H18V54H16zM20,52H22V54H20zM22,52H24V54H22zM26,52H28V54H26zM28,52H30V54H28zM34,52H36V54H34zM38,52H40V54H38zM44,52H46V54H44zM46,52H48V54H46zM48,52H50V54H48zM50,52H52V54H50zM52,52H54V54H52zM56,52H58V54H56zM58,52H60V54H58zM60,52H62V54H60zM4,54H6V56H4zM8,54H10V56H8zM10,54H12V56H10zM12,54H14V56H12zM16,54H18V56H16zM20,54H22V56H20zM24,54H26V56H24zM36,54H38V56H36zM50,54H52V56H50zM54,54H56V56H54zM56,54H58V56H56zM58,54H60V56H58zM60,54H62V56H60zM4,56H6V58H4zM8,56H10V58H8zM10,56H12V58H10zM12,56H14V58H12zM16,56H18V58H16zM20,56H22V58H20zM24,56H26V58H24zM28,56H30V58H28zM34,56H36V58H34zM44,56H46V58H44zM48,56H50V58H48zM50,56H52V58H50zM52,56H54V58H52zM54,56H56V58H54zM56,56H58V58H56zM58,56H60V58H58zM4,58H6V60H4zM16,58H18V60H16zM24,58H26V60H24zM26,58H28V60H26zM36,58H38V60H36zM40,58H42V60H40zM44,58H46V60H44zM54,58H56V60H54zM58,58H60V60H58zM4,60H6V62H4zM6,60H8V62H6zM8,60H10V62H8zM10,60H12V62H10zM12,60H14V62H12zM14,60H16V62H14zM16,60H18V62H16zM20,60H22V62H20zM24,60H26V62H24zM26,60H28V62H26zM32,60H34V62H32zM34,60H36V62H34zM38,60H40V62H38zM42,60H44V62H42zM46,60H48V62H46zM50,60H52V62H50zM56,60H58V62H56z" id="qr-path" fill="#000000" fill-opacity="1" fill-rule="nonzero" stroke="none"/></svg>